# xmcd
#
# Track frame offsets: 
#        150
#        20407
#        39005
#        63667
#        77422
#        98750
#        121937
#        145277
#        178770
#        197040
#
# Disc length: 2915 seconds
#
# Revision: 1
# Processed by: cddbd v1.5.2PL0 Copyright (c) Steve Scherf et al.
# Submitted via: ExactAudioCopy v0.99pb4
#
DISCID=7c0b610a
DTITLE=Big George Jackson - Beggin' Ain't For Me
DYEAR=1997
DGENRE=Blues
TTITLE0=Beggin' Ain't For Me
TTITLE1=Rubbish Truck
TTITLE2=Shake Your Moneymaker
TTITLE3=Ela May
TTITLE4=Ooh Wee Baby
TTITLE5=Lookin' To Steal Somebody
TTITLE6=Fat's Jump
TTITLE7=Fee Fi Fo Fam
TTITLE8=Kitchen Sink Boogie
TTITLE9=I'm A Big Man
EXTD=
EXTT0=
EXTT1=
EXTT2=
EXTT3=
EXTT4=
EXTT5=
EXTT6=
EXTT7=
EXTT8=
EXTT9=
PLAYORDER=
